{
  "accessors": [
    {
      "bufferView": 2,
      "componentType": 5126,
      "count": 6128,
      "max": [
        0.95105785131454468,
        1.4527883529663086,
        1
      ],
      "min": [
        -0.95105785131454468,
        -0.99999994039535522,
        -1
      ],
      "type": "VEC3"
    },
    {
      "bufferView": 2,
      "byteOffset": 73536,
      "componentType": 5126,
      "count": 6128,
      "max": [
        0.99628359079360962,
        0.99789988994598389,
        0.99375283718109131
      ],
      "min": [
        -0.99628347158432007,
        -0.99789994955062866,
        -0.99375104904174805
      ],
      "type": "VEC3"
    },
    {
      "bufferView": 1,
      "componentType": 5126,
      "count": 6128,
      "max": [
        1.0000002384185791,
        1
      ],
      "min": [
        0,
        0
      ],
      "type": "VEC2"
    },
    {
      "bufferView": 0,
      "componentType": 5125,
      "count": 7920,
      "max": [
        6127
      ],
      "min": [
        0
      ],
      "type": "SCALAR"
    },
    {
      "bufferView": 2,
      "byteOffset": 147072,
      "componentType": 5126,
      "count": 7248,
      "max": [
        0.77037340402603149,
        1.4650723934173584,
        0.69908010959625244
      ],
      "min": [
        -0.77037334442138672,
        -0.41785532236099243,
        -1.2199610471725464
      ],
      "type": "VEC3"
    },
    {
      "bufferView": 2,
      "byteOffset": 234048,
      "componentType": 5126,
      "count": 7248,
      "max": [
        0.99961638450622559,
        0.99899953603744507,
        1
      ],
      "min": [
        -0.99961638450622559,
        -0.99899977445602417,
        -1
      ],
      "type": "VEC3"
    },
    {
      "bufferView": 1,
      "byteOffset": 49024,
      "componentType": 5126,
      "count": 7248,
      "max": [
        1.0000002384185791,
        1
      ],
      "min": [
        0,
        0
      ],
      "type": "VEC2"
    },
    {
      "bufferView": 0,
      "byteOffset": 31680,
      "componentType": 5125,
      "count": 10992,
      "max": [
        7247
      ],
      "min": [
        0
      ],
      "type": "SCALAR"
    }
  ],
  "asset": {
    "extras": {
      "author": "dharness (https://sketchfab.com/dharness)",
      "license": "CC-BY-4.0 (http://creativecommons.org/licenses/by/4.0/)",
      "source": "https://sketchfab.com/3d-models/low-poly-lamb-54898f8067ba44539b5653c3f57308f9",
      "title": "Low Poly Lamb"
    },
    "generator": "Sketchfab-8.27.0",
    "version": "2.0"
  },
  "bufferViews": [
    {
      "buffer": 0,
      "byteLength": 75648,
      "byteOffset": 0,
      "name": "floatBufferViews",
      "target": 34963
    },
    {
      "buffer": 0,
      "byteLength": 107008,
      "byteOffset": 75648,
      "byteStride": 8,
      "name": "floatBufferViews",
      "target": 34962
    },
    {
      "buffer": 0,
      "byteLength": 321024,
      "byteOffset": 182656,
      "byteStride": 12,
      "name": "floatBufferViews",
      "target": 34962
    }
  ],
  "buffers": [
    {
      "byteLength": 503680,
      "uri": "scene.bin"
    }
  ],
  "materials": [
    {
      "doubleSided": true,
      "emissiveFactor": [
        0,
        0,
        0
      ],
      "name": "Material",
      "pbrMetallicRoughness": {
        "baseColorFactor": [
          0.90352200000000005,
          0.81274900000000005,
          0.77427400000000002,
          1
        ],
        "metallicFactor": 0,
        "roughnessFactor": 0.91159961976182502
      }
    },
    {
      "doubleSided": true,
      "emissiveFactor": [
        0,
        0,
        0
      ],
      "name": "Material.001",
      "pbrMetallicRoughness": {
        "baseColorFactor": [
          0.040523499999999997,
          0.027336099999999999,
          0.028587899999999999,
          1
        ],
        "metallicFactor": 0,
        "roughnessFactor": 1
      }
    }
  ],
  "meshes": [
    {
      "name": "sheep_Material_0",
      "primitives": [
        {
          "attributes": {
            "NORMAL": 1,
            "POSITION": 0,
            "TEXCOORD_0": 2
          },
          "indices": 3,
          "material": 0,
          "mode": 4
        }
      ]
    },
    {
      "name": "sheep_Material.001_0",
      "primitives": [
        {
          "attributes": {
            "NORMAL": 5,
            "POSITION": 4,
            "TEXCOORD_0": 6
          },
          "indices": 7,
          "material": 1,
          "mode": 4
        }
      ]
    }
  ],
  "nodes": [
    {
      "children": [
        1
      ],
      "name": "RootNode (gltf orientation matrix)",
      "rotation": [
        -0.70710678118654746,
        -0,
        -0,
        0.70710678118654757
      ]
    },
    {
      "children": [
        2
      ],
      "name": "RootNode (model correction matrix)"
    },
    {
      "children": [
        3
      ],
      "matrix": [
        1,
        0,
        0,
        0,
        0,
        0,
        1,
        0,
        0,
        -1,
        0,
        0,
        0,
        0,
        0,
        1
      ],
      "name": "33b9c90d26354cf7987d217fa4b79f9b.fbx"
    },
    {
      "children": [
        4
      ],
      "name": "RootNode"
    },
    {
      "children": [
        5,
        6
      ],
      "matrix": [
        198.5042724609375,
        0,
        0,
        0,
        0,
        -3.251866531238021e-05,
        -199.59814453124736,
        0,
        0,
        177.69395446777108,
        -2.8950019785710805e-05,
        0,
        0,
        0,
        -54.340309143066406,
        1
      ],
      "name": "sheep"
    },
    {
      "mesh": 0,
      "name": "sheep_Material_0"
    },
    {
      "mesh": 1,
      "name": "sheep_Material.001_0"
    }
  ],
  "scene": 0,
  "scenes": [
    {
      "name": "OSG_Scene",
      "nodes": [
        0
      ]
    }
  ]
}

