{
  "asset": {
    "version": "2.0",
    "generator": "gltfeditor.com"
  },
  "buffers": [
    {
      "uri": "scene.bin",
      "byteLength": 28584
    }
  ],
  "bufferViews": [
    {
      "buffer": 0,
      "byteLength": 22392,
      "byteOffset": 6192,
      "byteStride": 12,
      "target": 34962
    },
    {
      "buffer": 0,
      "byteLength": 6192,
      "byteOffset": 0,
      "byteStride": 0,
      "target": 34963
    }
  ],
  "accessors": [
    {
      "bufferView": 0,
      "byteOffset": 4608,
      "componentType": 5126,
      "count": 612,
      "max": [
        0.9175791144371033,
        0.9175791144371033,
        0.9979021549224854
      ],
      "min": [
        -0.9175791144371033,
        -0.9175791144371033,
        -0.9994331002235413
      ],
      "type": "VEC3"
    },
    {
      "bufferView": 0,
      "byteOffset": 0,
      "componentType": 5126,
      "count": 612,
      "max": [
        0.040550000965595245,
        0.040550000965595245,
        0.0386199988424778
      ],
      "min": [
        -0.040550000965595245,
        -0.040550000965595245,
        -0.04394000023603439
      ],
      "type": "VEC3"
    },
    {
      "bufferView": 1,
      "byteOffset": 0,
      "componentType": 5125,
      "normalized": false,
      "count": 612,
      "max": [
        383
      ],
      "min": [
        0
      ],
      "type": "SCALAR"
    },
    {
      "bufferView": 0,
      "byteOffset": 11280,
      "componentType": 5126,
      "count": 264,
      "max": [
        0.750281810760498,
        0.9910404682159424,
        0.999961793422699
      ],
      "min": [
        -0.5102296471595764,
        -0.9910404682159424,
        -0.999961793422699
      ],
      "type": "VEC3"
    },
    {
      "bufferView": 0,
      "byteOffset": 9216,
      "componentType": 5126,
      "count": 264,
      "max": [
        0.03754999861121178,
        0.007969999685883522,
        0.037870001047849655
      ],
      "min": [
        0.0011500000255182385,
        -0.007969999685883522,
        0.030640000477433205
      ],
      "type": "VEC3"
    },
    {
      "bufferView": 1,
      "byteOffset": 2448,
      "componentType": 5125,
      "normalized": false,
      "count": 264,
      "max": [
        171
      ],
      "min": [
        0
      ],
      "type": "SCALAR"
    }
  ],
  "scene": 0,
  "scenes": [
    {
      "nodes": [
        5
      ],
      "name": "OSG_Scene"
    }
  ],
  "nodes": [
    {
      "children": [],
      "matrix": [
        1,
        0,
        0,
        0,
        0,
        1,
        0,
        0,
        0,
        0,
        1,
        0,
        0,
        0,
        0,
        1
      ],
      "mesh": 0
    },
    {
      "children": [],
      "matrix": [
        1,
        0,
        0,
        0,
        0,
        1,
        0,
        0,
        0,
        0,
        1,
        0,
        0,
        0,
        0,
        1
      ],
      "mesh": 1
    },
    {
      "children": [
        0,
        1
      ],
      "matrix": [
        1,
        0,
        0,
        0,
        0,
        1,
        0,
        0,
        0,
        0,
        1,
        0,
        0,
        0,
        0.044920001178979874,
        1
      ]
    },
    {
      "children": [
        2
      ],
      "matrix": [
        1,
        0,
        0,
        0,
        0,
        1,
        0,
        0,
        0,
        0,
        1,
        0,
        0,
        0,
        0,
        1
      ]
    },
    {
      "children": [
        3
      ],
      "matrix": [
        1,
        0,
        0,
        0,
        0,
        1,
        0,
        0,
        0,
        0,
        1,
        0,
        0,
        0,
        0,
        1
      ]
    },
    {
      "children": [
        4
      ],
      "matrix": [
        1,
        0,
        0,
        0,
        0,
        3.422854177870249e-8,
        -0.9999999403953552,
        0,
        0,
        0.9999999403953552,
        3.422854177870249e-8,
        0,
        0,
        0,
        0,
        1
      ]
    }
  ],
  "cameras": [],
  "meshes": [
    {
      "primitives": [
        {
          "attributes": {
            "NORMAL": 0,
            "POSITION": 1
          },
          "material": 0,
          "mode": 4,
          "indices": 2
        }
      ]
    },
    {
      "primitives": [
        {
          "attributes": {
            "NORMAL": 3,
            "POSITION": 4
          },
          "material": 1,
          "mode": 4,
          "indices": 5
        }
      ]
    }
  ],
  "materials": [
    {
      "pbrMetallicRoughness": {
        "baseColorFactor": [
          1,
          0.3764705882352941,
          0,
          1
        ],
        "metallicFactor": 0,
        "roughnessFactor": 0.6
      },
      "emissiveFactor": [
        0,
        0,
        0
      ],
      "alphaMode": "OPAQUE",
      "alphaCutoff": 0.5,
      "doubleSided": true
    },
    {
      "pbrMetallicRoughness": {
        "baseColorFactor": [
          0.011764705882352941,
          0.8,
          0.0196078431372549,
          1
        ],
        "metallicFactor": 0,
        "roughnessFactor": 0.6
      },
      "emissiveFactor": [
        0,
        0,
        0
      ],
      "alphaMode": "OPAQUE",
      "alphaCutoff": 0.5,
      "doubleSided": true
    }
  ],
  "textures": [],
  "samplers": [],
  "images": []
}